<svg version="1.1" xmlns="http://www.w3.org/2000/svg" xmlns:xlink="http://www.w3.org/1999/xlink" width="400" height="266.6666666666667" viewBox="0, 0, 400,266.6666666666667"><g ><path d="M188.800 0.227 C 188.800 0.352,187.210 0.538,185.267 0.640 C 183.323 0.743,181.619 0.941,181.480 1.080 C 181.341 1.219,180.598 1.333,179.829 1.333 C 179.060 1.333,178.368 1.436,178.291 1.561 C 178.213 1.686,177.157 1.871,175.943 1.973 C 174.730 2.074,173.622 2.271,173.482 2.412 C 173.341 2.552,172.778 2.667,172.229 2.667 C 171.680 2.667,171.165 2.775,171.083 2.907 C 171.001 3.039,170.214 3.231,169.333 3.333 C 168.453 3.436,167.666 3.627,167.584 3.760 C 167.502 3.892,167.089 4.000,166.667 4.000 C 166.244 4.000,165.834 4.104,165.755 4.232 C 165.676 4.359,165.014 4.542,164.284 4.639 C 163.553 4.736,162.883 4.932,162.795 5.074 C 162.707 5.217,162.342 5.333,161.984 5.333 C 161.626 5.333,161.333 5.437,161.333 5.563 C 161.333 5.689,160.742 5.862,160.020 5.948 C 159.298 6.033,158.428 6.249,158.087 6.427 C 156.806 7.094,156.528 7.200,156.055 7.200 C 155.787 7.200,155.336 7.376,155.051 7.592 C 154.766 7.807,154.263 7.987,153.933 7.992 C 153.603 7.996,153.333 8.105,153.333 8.233 C 153.333 8.361,152.853 8.542,152.267 8.636 C 151.680 8.730,151.200 8.925,151.200 9.070 C 151.200 9.215,150.907 9.333,150.549 9.333 C 150.191 9.333,149.832 9.440,149.752 9.570 C 149.671 9.701,149.274 9.886,148.869 9.981 C 148.464 10.076,147.293 10.558,146.267 11.051 C 143.679 12.295,142.499 12.800,142.182 12.800 C 142.033 12.800,141.871 12.891,141.822 13.003 C 141.747 13.174,140.620 13.782,136.519 15.863 C 136.233 16.008,136.000 16.218,136.000 16.330 C 136.000 16.442,135.868 16.533,135.707 16.533 C 135.342 16.533,133.514 17.373,133.333 17.624 C 133.260 17.725,132.720 18.068,132.133 18.385 C 130.827 19.090,130.043 19.557,129.867 19.733 C 129.642 19.958,128.696 20.522,128.122 20.773 C 127.823 20.904,127.418 21.204,127.223 21.439 C 127.028 21.674,126.709 21.867,126.514 21.867 C 126.319 21.867,126.064 22.017,125.947 22.200 C 125.715 22.561,124.980 23.063,124.133 23.437 C 123.840 23.566,123.371 23.926,123.092 24.236 C 122.813 24.546,122.449 24.800,122.284 24.800 C 122.119 24.800,121.811 25.040,121.600 25.333 C 121.389 25.627,121.081 25.867,120.916 25.867 C 120.751 25.867,120.387 26.122,120.108 26.435 C 119.669 26.925,118.679 27.661,117.102 28.667 C 116.872 28.813,116.175 29.443,115.552 30.067 C 114.929 30.690,114.321 31.200,114.200 31.200 C 114.079 31.200,113.389 31.800,112.667 32.533 C 111.944 33.267,111.230 33.867,111.079 33.867 C 110.718 33.867,100.533 44.046,100.533 44.407 C 100.533 44.561,99.933 45.278,99.200 46.000 C 98.467 46.722,97.867 47.412,97.867 47.533 C 97.867 47.654,97.327 48.278,96.667 48.919 C 96.007 49.561,95.467 50.196,95.467 50.330 C 95.467 50.464,95.167 50.856,94.800 51.200 C 94.433 51.544,94.133 51.963,94.133 52.130 C 94.133 52.297,93.773 52.778,93.333 53.200 C 92.893 53.622,92.533 54.098,92.533 54.258 C 92.533 54.418,92.293 54.722,92.000 54.933 C 91.707 55.145,91.467 55.453,91.467 55.618 C 91.467 55.782,91.213 56.146,90.903 56.425 C 90.593 56.705,90.233 57.173,90.103 57.467 C 89.730 58.313,89.228 59.049,88.867 59.280 C 88.683 59.397,88.533 59.653,88.533 59.847 C 88.533 60.042,88.341 60.361,88.106 60.556 C 87.870 60.752,87.571 61.156,87.440 61.456 C 87.188 62.030,86.625 62.975,86.400 63.200 C 86.224 63.376,85.757 64.160,85.051 65.467 C 84.734 66.053,84.392 66.593,84.290 66.667 C 84.081 66.818,83.200 68.649,83.200 68.932 C 83.200 69.034,82.930 69.495,82.600 69.955 C 81.750 71.142,80.975 72.577,80.235 74.333 C 80.034 74.810,79.779 75.200,79.668 75.200 C 79.557 75.200,79.467 75.332,79.467 75.493 C 79.467 75.654,79.272 76.224,79.035 76.760 C 77.997 79.102,77.867 79.430,77.867 79.707 C 77.867 79.868,77.776 80.000,77.665 80.000 C 77.432 80.000,76.910 81.135,76.652 82.203 C 76.554 82.607,76.368 83.004,76.237 83.085 C 76.107 83.166,76.000 83.524,76.000 83.882 C 76.000 84.240,75.881 84.533,75.736 84.533 C 75.592 84.533,75.396 85.013,75.302 85.600 C 75.209 86.187,75.027 86.667,74.899 86.667 C 74.771 86.667,74.663 86.937,74.658 87.267 C 74.654 87.597,74.474 88.100,74.258 88.384 C 74.043 88.669,73.867 89.121,73.867 89.388 C 73.867 89.655,73.728 90.142,73.558 90.470 C 73.389 90.798,73.142 91.286,73.010 91.554 C 72.878 91.822,72.700 92.632,72.615 93.354 C 72.529 94.076,72.356 94.667,72.230 94.667 C 72.103 94.667,72.000 94.960,72.000 95.318 C 72.000 95.676,71.883 96.041,71.741 96.129 C 71.599 96.217,71.403 96.886,71.306 97.617 C 71.209 98.348,71.026 99.010,70.898 99.088 C 70.771 99.167,70.667 99.577,70.667 100.000 C 70.667 100.423,70.558 100.835,70.426 100.917 C 70.294 100.999,70.102 101.786,70.000 102.667 C 69.898 103.547,69.706 104.334,69.574 104.416 C 69.442 104.498,69.333 105.014,69.333 105.562 C 69.333 106.111,69.219 106.675,69.078 106.815 C 68.938 106.955,68.741 108.063,68.639 109.277 C 68.538 110.490,68.353 111.547,68.228 111.624 C 68.102 111.702,68.000 112.411,68.000 113.200 C 68.000 113.989,67.876 114.712,67.724 114.806 C 67.572 114.900,67.452 115.417,67.457 115.955 C 67.478 118.058,67.131 122.013,66.905 122.253 C 66.601 122.577,66.589 144.187,66.893 144.375 C 67.017 144.452,67.203 146.109,67.306 148.057 C 67.409 150.006,67.607 151.714,67.747 151.853 C 67.886 151.993,68.000 152.736,68.000 153.504 C 68.000 154.273,68.102 154.965,68.228 155.043 C 68.353 155.120,68.538 156.176,68.639 157.390 C 68.741 158.604,68.938 159.711,69.078 159.852 C 69.219 159.992,69.333 160.556,69.333 161.104 C 69.333 161.653,69.442 162.169,69.574 162.250 C 69.706 162.332,69.898 163.119,70.000 164.000 C 70.102 164.881,70.294 165.668,70.426 165.750 C 70.558 165.831,70.667 166.244,70.667 166.667 C 70.667 167.089,70.771 167.500,70.898 167.578 C 71.026 167.657,71.209 168.319,71.306 169.050 C 71.403 169.780,71.599 170.450,71.741 170.538 C 71.883 170.626,72.000 170.984,72.000 171.333 C 72.000 171.683,72.103 172.032,72.229 172.110 C 72.356 172.188,72.533 172.793,72.624 173.454 C 72.714 174.114,72.911 174.898,73.061 175.194 C 73.211 175.491,73.453 175.972,73.600 176.263 C 73.747 176.554,73.867 177.011,73.867 177.279 C 73.867 177.546,74.043 177.998,74.258 178.282 C 74.474 178.567,74.654 179.063,74.658 179.384 C 74.663 179.706,74.773 180.034,74.903 180.115 C 75.033 180.195,75.219 180.682,75.315 181.197 C 75.412 181.712,75.605 182.133,75.745 182.133 C 75.885 182.133,76.000 182.426,76.000 182.784 C 76.000 183.142,76.107 183.501,76.237 183.582 C 76.368 183.662,76.552 184.059,76.648 184.464 C 76.743 184.869,77.225 186.040,77.718 187.067 C 78.211 188.093,78.813 189.413,79.054 190.000 C 79.474 191.022,79.677 191.434,80.267 192.467 C 80.413 192.723,80.651 193.233,80.795 193.600 C 80.939 193.967,81.361 194.747,81.733 195.333 C 82.104 195.920,82.481 196.610,82.569 196.867 C 82.657 197.123,82.835 197.333,82.964 197.333 C 83.094 197.333,83.200 197.465,83.200 197.626 C 83.200 198.041,84.002 199.721,84.652 200.667 C 85.425 201.792,85.842 202.469,86.047 202.933 C 86.144 203.153,86.504 203.673,86.845 204.087 C 87.187 204.502,87.467 204.993,87.467 205.179 C 87.467 205.365,87.707 205.735,88.000 206.000 C 88.293 206.265,88.533 206.597,88.533 206.736 C 88.533 206.876,88.893 207.444,89.333 208.000 C 89.773 208.556,90.133 209.122,90.133 209.259 C 90.133 209.395,90.433 209.789,90.800 210.133 C 91.167 210.478,91.467 210.879,91.467 211.026 C 91.467 211.172,92.067 211.982,92.800 212.825 C 93.533 213.668,94.133 214.466,94.133 214.599 C 94.133 214.732,94.433 215.122,94.800 215.467 C 95.167 215.811,95.467 216.202,95.467 216.334 C 95.467 216.467,96.007 217.115,96.667 217.775 C 97.327 218.435,97.867 219.060,97.867 219.164 C 97.867 219.268,98.467 219.944,99.200 220.667 C 99.933 221.389,100.533 222.106,100.533 222.259 C 100.533 222.621,110.718 232.800,111.079 232.800 C 111.230 232.800,111.944 233.400,112.667 234.133 C 113.389 234.867,114.085 235.467,114.214 235.467 C 114.343 235.467,114.932 236.007,115.523 236.667 C 116.114 237.327,116.742 237.867,116.919 237.867 C 117.096 237.867,117.522 238.167,117.867 238.533 C 118.211 238.900,118.630 239.200,118.797 239.200 C 118.964 239.200,119.445 239.560,119.867 240.000 C 120.288 240.440,120.764 240.800,120.924 240.800 C 121.085 240.800,121.389 241.040,121.600 241.333 C 121.811 241.627,122.117 241.867,122.279 241.867 C 122.441 241.867,122.856 242.167,123.200 242.533 C 123.544 242.900,123.938 243.200,124.075 243.200 C 124.211 243.200,124.778 243.560,125.333 244.000 C 125.889 244.440,126.458 244.800,126.597 244.800 C 126.737 244.800,127.068 245.040,127.333 245.333 C 127.599 245.627,127.968 245.867,128.154 245.867 C 128.340 245.867,128.833 246.137,129.248 246.467 C 130.091 247.135,130.575 247.440,132.133 248.282 C 132.720 248.599,133.260 248.939,133.333 249.038 C 133.407 249.136,134.247 249.609,135.200 250.088 C 136.153 250.567,137.413 251.255,138.000 251.617 C 138.587 251.979,139.367 252.394,139.733 252.538 C 140.100 252.682,140.580 252.901,140.800 253.025 C 142.016 253.709,142.360 253.879,143.333 254.280 C 143.920 254.521,145.240 255.122,146.267 255.615 C 147.293 256.109,148.464 256.590,148.869 256.686 C 149.274 256.781,149.671 256.966,149.752 257.096 C 149.832 257.227,150.191 257.333,150.549 257.333 C 150.907 257.333,151.200 257.452,151.200 257.597 C 151.200 257.742,151.680 257.937,152.267 258.031 C 152.853 258.125,153.333 258.306,153.333 258.434 C 153.333 258.562,153.626 258.667,153.984 258.667 C 154.342 258.667,154.704 258.777,154.787 258.913 C 154.871 259.048,155.324 259.243,155.794 259.347 C 156.264 259.450,156.893 259.658,157.191 259.809 C 157.489 259.960,157.946 260.187,158.206 260.314 C 158.466 260.441,159.219 260.619,159.880 260.710 C 160.541 260.800,161.145 260.978,161.223 261.104 C 161.301 261.230,161.651 261.333,162.000 261.333 C 162.349 261.333,162.707 261.450,162.795 261.592 C 162.883 261.735,163.553 261.931,164.284 262.027 C 165.014 262.124,165.676 262.308,165.755 262.435 C 165.834 262.562,166.244 262.667,166.667 262.667 C 167.089 262.667,167.502 262.775,167.584 262.907 C 167.666 263.039,168.453 263.231,169.333 263.333 C 170.214 263.436,171.001 263.627,171.083 263.760 C 171.165 263.892,171.680 264.000,172.229 264.000 C 172.778 264.000,173.341 264.115,173.482 264.255 C 173.622 264.395,174.730 264.593,175.943 264.694 C 177.157 264.795,178.213 264.981,178.291 265.106 C 178.368 265.231,179.060 265.333,179.829 265.333 C 180.598 265.333,181.341 265.447,181.480 265.587 C 181.619 265.726,183.323 265.924,185.267 266.027 C 187.210 266.129,188.800 266.315,188.800 266.440 C 188.800 266.736,210.592 266.737,210.775 266.441 C 210.851 266.317,212.567 266.132,214.587 266.031 C 216.607 265.930,218.375 265.731,218.517 265.590 C 218.658 265.449,219.402 265.333,220.171 265.333 C 220.940 265.333,221.632 265.231,221.709 265.106 C 221.787 264.981,222.843 264.795,224.057 264.694 C 225.270 264.593,226.378 264.395,226.518 264.255 C 226.659 264.115,227.222 264.000,227.771 264.000 C 228.320 264.000,228.835 263.892,228.917 263.760 C 228.999 263.627,229.786 263.436,230.667 263.333 C 231.547 263.231,232.334 263.039,232.416 262.907 C 232.498 262.775,232.911 262.667,233.333 262.667 C 233.756 262.667,234.166 262.562,234.245 262.435 C 234.324 262.308,234.986 262.124,235.716 262.027 C 236.447 261.931,237.117 261.735,237.205 261.592 C 237.293 261.450,237.651 261.333,238.000 261.333 C 238.349 261.333,238.699 261.230,238.777 261.104 C 238.855 260.978,239.459 260.800,240.120 260.710 C 241.273 260.552,241.529 260.465,242.863 259.775 C 243.191 259.605,243.678 259.467,243.945 259.467 C 244.213 259.467,244.664 259.290,244.949 259.075 C 245.234 258.860,245.730 258.680,246.051 258.675 C 246.372 258.670,246.709 258.547,246.800 258.400 C 246.891 258.253,247.150 258.133,247.375 258.133 C 247.601 258.133,248.224 257.939,248.760 257.702 C 251.076 256.675,251.427 256.533,251.657 256.533 C 251.791 256.533,252.924 256.011,254.175 255.373 C 255.426 254.735,256.791 254.127,257.208 254.022 C 257.626 253.917,258.275 253.615,258.650 253.351 C 259.026 253.086,259.633 252.778,260.000 252.667 C 260.367 252.555,260.967 252.269,261.334 252.032 C 262.640 251.188,263.089 250.934,264.933 249.995 C 266.833 249.029,267.761 248.506,268.000 248.267 C 268.200 248.067,269.145 247.487,269.600 247.286 C 269.820 247.189,270.339 246.830,270.754 246.488 C 271.168 246.146,271.660 245.867,271.846 245.867 C 272.032 245.867,272.401 245.627,272.667 245.333 C 272.932 245.040,273.263 244.800,273.403 244.800 C 273.542 244.800,274.111 244.440,274.667 244.000 C 275.222 243.560,275.789 243.200,275.925 243.200 C 276.062 243.200,276.456 242.900,276.800 242.533 C 277.144 242.167,277.539 241.867,277.677 241.867 C 277.815 241.867,278.620 241.267,279.467 240.533 C 280.313 239.800,281.119 239.200,281.256 239.200 C 281.394 239.200,281.789 238.900,282.133 238.533 C 282.478 238.167,282.875 237.867,283.015 237.867 C 283.156 237.867,284.502 236.727,286.007 235.333 C 287.511 233.940,288.844 232.800,288.969 232.800 C 289.246 232.800,299.467 222.617,299.467 222.340 C 299.467 222.154,300.280 221.222,303.267 217.987 C 303.963 217.233,304.533 216.498,304.533 216.354 C 304.533 216.210,304.833 215.811,305.200 215.467 C 305.567 215.122,305.867 214.728,305.867 214.590 C 305.867 214.452,306.467 213.646,307.200 212.800 C 307.933 211.954,308.533 211.148,308.533 211.010 C 308.533 210.872,308.833 210.478,309.200 210.133 C 309.567 209.789,309.867 209.395,309.867 209.259 C 309.867 209.122,310.227 208.556,310.667 208.000 C 311.107 207.444,311.467 206.876,311.467 206.736 C 311.467 206.597,311.707 206.265,312.000 206.000 C 312.293 205.735,312.533 205.365,312.533 205.179 C 312.533 204.993,312.803 204.501,313.133 204.085 C 313.828 203.210,314.331 202.435,314.574 201.867 C 314.669 201.647,315.003 201.107,315.317 200.667 C 315.632 200.227,316.278 199.087,316.754 198.133 C 317.616 196.405,317.882 195.931,318.698 194.668 C 318.936 194.301,319.222 193.700,319.333 193.333 C 319.445 192.967,319.753 192.359,320.017 191.984 C 320.282 191.608,320.584 190.959,320.688 190.542 C 320.793 190.124,321.401 188.759,322.039 187.508 C 322.678 186.257,323.200 185.124,323.200 184.990 C 323.200 184.857,323.380 184.339,323.600 183.840 C 323.820 183.341,324.180 182.525,324.400 182.026 C 324.620 181.528,324.800 180.935,324.800 180.709 C 324.800 180.483,324.920 180.224,325.067 180.133 C 325.213 180.043,325.337 179.706,325.342 179.384 C 325.346 179.063,325.526 178.567,325.742 178.282 C 325.957 177.998,326.133 177.546,326.133 177.279 C 326.133 177.011,326.253 176.554,326.400 176.263 C 326.547 175.972,326.789 175.491,326.939 175.194 C 327.089 174.898,327.286 174.114,327.376 173.454 C 327.467 172.793,327.644 172.188,327.771 172.110 C 327.897 172.032,328.000 171.683,328.000 171.333 C 328.000 170.984,328.117 170.626,328.259 170.538 C 328.401 170.450,328.597 169.780,328.694 169.050 C 328.791 168.319,328.974 167.657,329.102 167.578 C 329.229 167.500,329.333 167.089,329.333 166.667 C 329.333 166.244,329.442 165.831,329.574 165.750 C 329.706 165.668,329.898 164.881,330.000 164.000 C 330.102 163.119,330.294 162.332,330.426 162.250 C 330.558 162.169,330.667 161.653,330.667 161.104 C 330.667 160.556,330.781 159.992,330.922 159.852 C 331.062 159.711,331.259 158.604,331.361 157.390 C 331.462 156.176,331.647 155.120,331.772 155.043 C 331.898 154.965,332.000 154.273,332.000 153.504 C 332.000 152.736,332.116 151.991,332.257 151.850 C 332.398 151.709,332.596 149.940,332.698 147.920 C 332.799 145.900,332.984 144.185,333.108 144.108 C 333.403 143.925,333.402 122.474,333.107 122.292 C 332.983 122.215,332.797 120.558,332.694 118.609 C 332.591 116.661,332.393 114.953,332.253 114.813 C 332.114 114.674,332.000 113.931,332.000 113.162 C 332.000 112.394,331.898 111.702,331.772 111.624 C 331.647 111.547,331.462 110.490,331.361 109.277 C 331.259 108.063,331.062 106.955,330.922 106.815 C 330.781 106.675,330.667 106.111,330.667 105.562 C 330.667 105.014,330.558 104.498,330.426 104.416 C 330.294 104.334,330.102 103.547,330.000 102.667 C 329.898 101.786,329.706 100.999,329.574 100.917 C 329.442 100.835,329.333 100.423,329.333 100.000 C 329.333 99.577,329.229 99.167,329.102 99.088 C 328.974 99.010,328.791 98.348,328.694 97.617 C 328.597 96.886,328.401 96.217,328.259 96.129 C 328.117 96.041,328.000 95.683,328.000 95.333 C 328.000 94.984,327.897 94.634,327.771 94.556 C 327.644 94.478,327.467 93.874,327.376 93.213 C 327.286 92.552,327.089 91.769,326.939 91.472 C 326.789 91.176,326.547 90.695,326.400 90.404 C 326.253 90.112,326.133 89.655,326.133 89.388 C 326.133 89.121,325.957 88.669,325.742 88.384 C 325.526 88.100,325.346 87.604,325.342 87.282 C 325.337 86.961,325.227 86.632,325.097 86.552 C 324.967 86.472,324.781 85.985,324.685 85.470 C 324.588 84.955,324.395 84.533,324.255 84.533 C 324.115 84.533,324.000 84.240,324.000 83.882 C 324.000 83.524,323.893 83.166,323.763 83.085 C 323.632 83.004,323.446 82.607,323.348 82.203 C 323.090 81.135,322.568 80.000,322.335 80.000 C 322.224 80.000,322.133 79.868,322.133 79.707 C 322.133 79.353,321.299 77.521,321.052 77.333 C 320.956 77.260,320.794 76.750,320.693 76.200 C 320.592 75.650,320.424 75.200,320.320 75.200 C 320.144 75.200,319.917 74.762,319.218 73.067 C 319.066 72.700,318.646 71.920,318.284 71.333 C 317.921 70.747,317.233 69.487,316.754 68.533 C 316.275 67.580,315.803 66.740,315.704 66.667 C 315.606 66.593,315.266 66.053,314.949 65.467 C 314.144 63.978,313.791 63.418,313.363 62.955 C 313.159 62.735,312.836 62.180,312.645 61.723 C 312.454 61.265,312.111 60.736,311.882 60.546 C 311.654 60.357,311.467 60.042,311.467 59.847 C 311.467 59.653,311.317 59.397,311.133 59.280 C 310.772 59.049,310.270 58.313,309.897 57.467 C 309.767 57.173,309.407 56.705,309.097 56.425 C 308.787 56.146,308.533 55.782,308.533 55.618 C 308.533 55.453,308.293 55.145,308.000 54.933 C 307.707 54.722,307.467 54.418,307.467 54.258 C 307.467 54.098,307.107 53.622,306.667 53.200 C 306.227 52.778,305.867 52.297,305.867 52.130 C 305.867 51.963,305.567 51.544,305.200 51.200 C 304.833 50.856,304.533 50.459,304.533 50.318 C 304.533 50.177,303.393 48.831,302.000 47.327 C 300.607 45.822,299.467 44.489,299.467 44.365 C 299.467 44.057,289.268 33.867,288.960 33.867 C 288.825 33.867,288.038 33.237,287.212 32.467 C 284.420 29.867,283.187 28.800,282.973 28.800 C 282.856 28.800,282.478 28.500,282.133 28.133 C 281.789 27.767,281.398 27.467,281.266 27.467 C 281.133 27.467,280.335 26.867,279.492 26.133 C 278.648 25.400,277.837 24.800,277.687 24.800 C 277.538 24.800,277.187 24.546,276.908 24.236 C 276.629 23.926,276.160 23.566,275.867 23.437 C 275.020 23.063,274.285 22.561,274.053 22.200 C 273.936 22.017,273.685 21.867,273.495 21.867 C 273.305 21.867,272.942 21.637,272.688 21.357 C 272.435 21.077,271.913 20.769,271.530 20.673 C 271.146 20.576,270.643 20.296,270.412 20.049 C 269.738 19.328,267.739 18.223,267.515 18.448 C 267.468 18.495,267.312 18.324,267.168 18.068 C 266.919 17.622,264.870 16.533,264.281 16.533 C 264.127 16.533,264.000 16.442,264.000 16.330 C 264.000 16.127,263.881 16.054,261.959 15.081 C 261.395 14.795,260.873 14.481,260.800 14.383 C 260.727 14.285,260.367 14.113,260.000 14.001 C 259.633 13.889,259.015 13.572,258.626 13.298 C 258.236 13.024,257.834 12.800,257.732 12.800 C 257.489 12.800,256.034 12.160,253.733 11.040 C 252.707 10.540,251.765 10.131,251.640 10.132 C 251.516 10.133,251.006 9.953,250.507 9.733 C 250.008 9.513,249.192 9.153,248.693 8.933 C 248.194 8.713,247.601 8.533,247.375 8.533 C 247.150 8.533,246.891 8.413,246.800 8.267 C 246.709 8.120,246.372 7.996,246.051 7.992 C 245.730 7.987,245.234 7.807,244.949 7.592 C 244.664 7.376,244.213 7.200,243.945 7.200 C 243.678 7.200,243.221 7.080,242.930 6.933 C 242.638 6.787,242.151 6.540,241.846 6.385 C 241.542 6.230,240.702 6.033,239.980 5.948 C 239.258 5.862,238.667 5.689,238.667 5.563 C 238.667 5.437,238.374 5.333,238.016 5.333 C 237.658 5.333,237.293 5.217,237.205 5.074 C 237.117 4.932,236.447 4.736,235.716 4.639 C 234.986 4.542,234.324 4.359,234.245 4.232 C 234.166 4.104,233.756 4.000,233.333 4.000 C 232.911 4.000,232.498 3.892,232.416 3.760 C 232.334 3.627,231.547 3.436,230.667 3.333 C 229.786 3.231,228.999 3.039,228.917 2.907 C 228.835 2.775,228.320 2.667,227.771 2.667 C 227.222 2.667,226.659 2.552,226.518 2.412 C 226.378 2.271,225.270 2.074,224.057 1.973 C 222.843 1.871,221.787 1.686,221.709 1.561 C 221.632 1.436,220.940 1.333,220.171 1.333 C 219.402 1.333,218.659 1.219,218.520 1.080 C 218.381 0.941,216.677 0.743,214.733 0.640 C 212.790 0.538,211.200 0.352,211.200 0.227 C 211.200 0.102,206.160 0.000,200.000 0.000 C 193.840 0.000,188.800 0.102,188.800 0.227 M213.271 27.679 C 213.336 27.876,213.931 28.000,214.806 28.000 C 215.592 28.000,216.298 28.102,216.376 28.228 C 216.453 28.353,217.510 28.538,218.723 28.639 C 219.937 28.741,221.045 28.938,221.185 29.078 C 221.325 29.219,221.889 29.333,222.438 29.333 C 222.986 29.333,223.502 29.442,223.584 29.574 C 223.666 29.706,224.453 29.898,225.333 30.000 C 226.214 30.102,227.001 30.294,227.083 30.426 C 227.165 30.558,227.524 30.667,227.882 30.667 C 228.240 30.667,228.533 30.771,228.533 30.899 C 228.533 31.027,229.144 31.212,229.890 31.311 C 230.636 31.410,231.476 31.606,231.757 31.746 C 232.037 31.886,232.481 32.105,232.742 32.233 C 233.004 32.361,233.634 32.548,234.142 32.648 C 235.070 32.832,235.306 32.916,237.107 33.706 C 237.642 33.941,238.209 34.133,238.366 34.133 C 238.522 34.133,239.044 34.354,239.525 34.623 C 240.006 34.892,240.753 35.200,241.184 35.307 C 241.615 35.414,242.293 35.734,242.692 36.018 C 243.090 36.301,243.592 36.533,243.808 36.533 C 244.363 36.533,251.200 40.018,251.200 40.300 C 251.200 40.428,251.319 40.533,251.465 40.533 C 251.906 40.533,253.867 41.445,253.867 41.650 C 253.867 41.756,254.317 42.048,254.867 42.299 C 255.417 42.551,256.347 43.136,256.933 43.598 C 257.520 44.061,258.180 44.525,258.400 44.630 C 259.586 45.196,261.658 46.651,261.947 47.120 C 262.064 47.311,262.313 47.467,262.500 47.467 C 262.687 47.467,263.122 47.767,263.467 48.133 C 263.811 48.500,264.231 48.800,264.400 48.800 C 264.569 48.800,264.989 49.100,265.333 49.467 C 265.678 49.833,266.056 50.133,266.174 50.133 C 266.292 50.133,266.887 50.673,267.495 51.333 C 268.104 51.993,268.738 52.533,268.906 52.533 C 269.074 52.533,270.286 53.613,271.600 54.933 C 272.914 56.253,274.105 57.333,274.247 57.333 C 274.593 57.333,276.000 58.698,276.000 59.034 C 276.000 59.181,277.110 60.462,278.467 61.881 C 281.467 65.019,283.200 66.966,283.200 67.199 C 283.200 67.295,283.500 67.656,283.867 68.000 C 284.233 68.344,284.533 68.764,284.533 68.933 C 284.533 69.102,284.833 69.522,285.200 69.867 C 285.567 70.211,285.867 70.643,285.867 70.827 C 285.867 71.011,286.143 71.380,286.481 71.647 C 286.819 71.915,287.180 72.313,287.284 72.533 C 287.388 72.753,287.710 73.293,288.000 73.733 C 288.290 74.173,288.610 74.713,288.712 74.933 C 288.813 75.153,289.085 75.515,289.315 75.737 C 289.837 76.241,290.239 76.886,290.935 78.333 C 291.235 78.957,291.568 79.467,291.675 79.467 C 291.866 79.467,292.234 80.199,292.783 81.674 C 292.935 82.081,293.240 82.483,293.463 82.569 C 293.685 82.654,293.867 82.830,293.867 82.960 C 293.867 83.394,294.790 85.333,294.996 85.333 C 295.108 85.333,295.200 85.453,295.200 85.598 C 295.200 86.039,296.112 88.000,296.317 88.000 C 296.423 88.000,296.591 88.450,296.692 89.000 C 296.792 89.550,297.089 90.307,297.353 90.683 C 297.616 91.059,297.919 91.719,298.026 92.150 C 298.134 92.581,298.442 93.327,298.711 93.808 C 298.980 94.289,299.200 94.811,299.200 94.968 C 299.200 95.125,299.392 95.691,299.627 96.226 C 300.417 98.027,300.502 98.264,300.685 99.191 C 300.786 99.700,300.991 100.360,301.142 100.658 C 301.725 101.808,301.806 102.057,301.982 103.210 C 302.149 104.307,302.395 105.063,302.940 106.157 C 303.056 106.390,303.236 107.262,303.340 108.094 C 303.444 108.926,303.635 109.673,303.764 109.753 C 303.894 109.833,304.000 110.371,304.000 110.949 C 304.000 111.527,304.111 112.000,304.247 112.000 C 304.382 112.000,304.578 113.083,304.681 114.406 C 304.785 115.729,304.974 116.876,305.102 116.955 C 305.229 117.034,305.333 117.727,305.333 118.496 C 305.333 119.264,305.483 120.043,305.667 120.227 C 306.153 120.713,306.153 146.438,305.667 146.600 C 305.450 146.672,305.333 147.264,305.333 148.289 C 305.333 149.157,305.229 149.867,305.101 149.867 C 304.973 149.867,304.784 150.947,304.681 152.267 C 304.578 153.587,304.382 154.667,304.247 154.667 C 304.111 154.667,304.000 155.140,304.000 155.718 C 304.000 156.296,303.892 156.835,303.760 156.917 C 303.627 156.999,303.436 157.786,303.333 158.667 C 303.231 159.547,303.039 160.334,302.907 160.416 C 302.775 160.498,302.667 160.858,302.667 161.216 C 302.667 161.574,302.562 161.867,302.434 161.867 C 302.307 161.867,302.121 162.477,302.022 163.223 C 301.923 163.969,301.728 164.809,301.588 165.090 C 301.448 165.370,301.229 165.814,301.101 166.075 C 300.973 166.337,300.786 166.967,300.685 167.475 C 300.502 168.403,300.417 168.639,299.627 170.440 C 299.392 170.976,299.200 171.542,299.200 171.699 C 299.200 171.856,298.960 172.411,298.667 172.933 C 298.373 173.456,298.133 174.011,298.133 174.168 C 298.133 174.516,297.296 176.348,297.052 176.533 C 296.956 176.607,296.794 177.117,296.693 177.667 C 296.592 178.217,296.423 178.667,296.317 178.667 C 296.112 178.667,295.200 180.627,295.200 181.068 C 295.200 181.214,295.108 181.333,294.996 181.333 C 294.798 181.333,293.867 183.265,293.867 183.676 C 293.867 183.790,293.627 184.055,293.333 184.267 C 293.040 184.478,292.800 184.744,292.800 184.857 C 292.800 185.261,291.871 187.200,291.677 187.200 C 291.569 187.200,291.235 187.710,290.935 188.333 C 290.239 189.781,289.837 190.426,289.315 190.930 C 289.085 191.152,288.810 191.513,288.704 191.733 C 288.130 192.929,286.682 194.992,286.213 195.280 C 286.023 195.397,285.867 195.646,285.867 195.833 C 285.867 196.021,285.567 196.456,285.200 196.800 C 284.833 197.144,284.533 197.542,284.533 197.683 C 284.533 197.924,283.597 199.044,281.440 201.384 C 280.942 201.926,280.533 202.464,280.533 202.579 C 280.533 202.695,279.443 203.885,278.111 205.223 C 276.778 206.561,275.546 207.941,275.372 208.289 C 275.198 208.638,274.772 209.065,274.424 209.238 C 274.076 209.412,272.816 210.524,271.623 211.710 C 270.431 212.896,269.349 213.867,269.220 213.867 C 269.090 213.867,268.527 214.347,267.969 214.933 C 267.411 215.520,266.853 216.000,266.730 216.000 C 266.606 216.000,266.098 216.420,265.600 216.933 C 265.102 217.447,264.560 217.867,264.394 217.867 C 264.229 217.867,263.811 218.167,263.467 218.533 C 263.122 218.900,262.687 219.200,262.500 219.200 C 262.313 219.200,262.064 219.356,261.947 219.547 C 261.658 220.015,259.596 221.464,258.400 222.038 C 258.180 222.143,257.818 222.418,257.596 222.648 C 257.092 223.170,256.448 223.573,255.000 224.269 C 254.377 224.568,253.867 224.902,253.867 225.010 C 253.867 225.204,251.928 226.133,251.524 226.133 C 251.410 226.133,251.145 226.373,250.933 226.667 C 250.722 226.960,250.456 227.200,250.343 227.200 C 249.932 227.200,248.000 228.131,248.000 228.330 C 248.000 228.442,247.881 228.533,247.735 228.533 C 247.294 228.533,245.333 229.446,245.333 229.651 C 245.333 229.756,244.883 229.925,244.333 230.026 C 243.783 230.128,243.273 230.289,243.200 230.386 C 243.015 230.629,241.182 231.467,240.834 231.467 C 240.678 231.467,240.122 231.707,239.600 232.000 C 239.078 232.293,238.522 232.533,238.366 232.533 C 238.209 232.533,237.642 232.726,237.107 232.961 C 235.306 233.751,235.070 233.835,234.142 234.018 C 233.634 234.119,233.004 234.306,232.742 234.434 C 232.481 234.562,232.037 234.781,231.757 234.921 C 231.476 235.061,230.636 235.256,229.890 235.355 C 229.144 235.454,228.533 235.640,228.533 235.768 C 228.533 235.895,228.240 236.000,227.882 236.000 C 227.524 236.000,227.165 236.108,227.083 236.240 C 227.001 236.373,226.214 236.564,225.333 236.667 C 224.453 236.769,223.666 236.961,223.584 237.093 C 223.502 237.225,222.962 237.333,222.384 237.333 C 221.806 237.333,221.333 237.443,221.333 237.576 C 221.333 237.710,220.312 237.904,219.063 238.008 C 217.814 238.112,216.727 238.303,216.647 238.432 C 216.567 238.561,215.799 238.667,214.940 238.667 C 213.927 238.667,213.339 238.784,213.267 239.000 C 213.114 239.458,187.474 239.488,186.908 239.032 C 186.702 238.866,185.753 238.655,184.800 238.564 C 183.847 238.473,182.767 238.346,182.400 238.283 C 182.033 238.220,181.043 238.083,180.200 237.980 C 179.357 237.877,178.667 237.689,178.667 237.563 C 178.667 237.437,178.194 237.333,177.616 237.333 C 177.038 237.333,176.499 237.227,176.419 237.098 C 176.339 236.968,175.593 236.777,174.761 236.673 C 173.928 236.569,173.057 236.389,172.824 236.273 C 171.729 235.728,170.974 235.483,169.877 235.315 C 169.223 235.216,168.443 235.010,168.144 234.859 C 167.037 234.298,166.762 234.197,165.858 234.018 C 164.930 233.835,164.694 233.751,162.893 232.961 C 162.358 232.726,161.791 232.533,161.634 232.533 C 161.478 232.533,160.922 232.293,160.400 232.000 C 159.878 231.707,159.322 231.467,159.166 231.467 C 158.818 231.467,156.985 230.629,156.800 230.386 C 156.727 230.289,156.225 230.129,155.686 230.030 C 155.147 229.931,154.667 229.762,154.619 229.655 C 154.572 229.548,153.453 228.934,152.133 228.290 C 150.813 227.646,149.493 226.911,149.200 226.657 C 148.907 226.403,148.367 226.107,148.000 226.000 C 147.633 225.892,146.973 225.546,146.533 225.230 C 146.093 224.914,145.373 224.482,144.933 224.269 C 144.493 224.057,143.659 223.519,143.080 223.075 C 142.005 222.251,141.247 221.764,140.533 221.439 C 140.313 221.339,139.572 220.794,138.885 220.228 C 138.199 219.663,137.530 219.200,137.399 219.200 C 137.267 219.200,136.878 218.900,136.533 218.533 C 136.189 218.167,135.794 217.867,135.656 217.867 C 135.403 217.867,132.495 215.467,131.702 214.603 C 131.465 214.345,131.162 214.133,131.030 214.133 C 130.897 214.133,129.714 213.053,128.400 211.733 C 127.086 210.413,125.881 209.333,125.722 209.333 C 125.370 209.333,124.000 207.939,124.000 207.580 C 124.000 207.438,122.920 206.247,121.600 204.933 C 120.280 203.619,119.200 202.441,119.200 202.315 C 119.200 202.189,118.360 201.167,117.334 200.043 C 116.308 198.919,115.468 197.871,115.468 197.713 C 115.467 197.555,115.167 197.144,114.800 196.800 C 114.433 196.456,114.133 196.066,114.133 195.935 C 114.133 195.803,113.671 195.134,113.105 194.448 C 112.539 193.762,111.995 193.020,111.894 192.800 C 111.570 192.086,111.083 191.328,110.259 190.254 C 109.814 189.674,109.276 188.840,109.064 188.400 C 108.851 187.960,108.419 187.240,108.103 186.800 C 107.787 186.360,107.441 185.700,107.334 185.333 C 107.226 184.967,106.932 184.427,106.680 184.133 C 106.013 183.357,103.200 177.617,103.200 177.031 C 103.200 176.757,103.108 176.533,102.996 176.533 C 102.784 176.533,101.867 174.589,101.867 174.140 C 101.867 173.998,101.627 173.456,101.333 172.933 C 101.040 172.411,100.800 171.856,100.800 171.699 C 100.800 171.542,100.608 170.976,100.373 170.440 C 99.583 168.639,99.498 168.403,99.315 167.475 C 99.214 166.967,99.027 166.337,98.899 166.075 C 98.771 165.814,98.552 165.370,98.412 165.090 C 98.272 164.809,98.077 163.969,97.978 163.223 C 97.879 162.477,97.693 161.867,97.566 161.867 C 97.438 161.867,97.333 161.574,97.333 161.216 C 97.333 160.858,97.225 160.498,97.093 160.416 C 96.961 160.334,96.769 159.547,96.667 158.667 C 96.564 157.786,96.373 156.999,96.240 156.917 C 96.108 156.835,96.000 156.320,96.000 155.771 C 96.000 155.222,95.885 154.659,95.745 154.518 C 95.605 154.378,95.407 153.274,95.307 152.065 C 95.206 150.856,95.021 149.867,94.895 149.867 C 94.769 149.867,94.667 149.171,94.667 148.320 C 94.667 147.438,94.523 146.630,94.333 146.440 C 93.849 145.955,93.849 120.711,94.333 120.227 C 94.517 120.043,94.667 119.264,94.667 118.496 C 94.667 117.727,94.769 117.035,94.894 116.957 C 95.019 116.880,95.205 115.824,95.306 114.610 C 95.407 113.396,95.605 112.289,95.745 112.148 C 95.885 112.008,96.000 111.444,96.000 110.896 C 96.000 110.347,96.106 109.833,96.236 109.753 C 96.365 109.673,96.556 108.926,96.660 108.094 C 96.764 107.262,96.944 106.390,97.060 106.157 C 97.605 105.063,97.851 104.307,98.018 103.210 C 98.118 102.556,98.323 101.776,98.475 101.477 C 99.035 100.370,99.136 100.096,99.315 99.191 C 99.498 98.264,99.583 98.027,100.373 96.226 C 100.608 95.691,100.800 95.125,100.800 94.968 C 100.800 94.811,101.020 94.289,101.289 93.808 C 101.558 93.327,101.866 92.581,101.974 92.150 C 102.081 91.719,102.401 91.040,102.684 90.642 C 102.968 90.244,103.200 89.742,103.200 89.528 C 103.200 89.021,106.082 83.229,106.680 82.533 C 106.932 82.240,107.226 81.700,107.334 81.333 C 107.441 80.967,107.787 80.307,108.103 79.867 C 108.419 79.427,108.851 78.707,109.064 78.267 C 109.276 77.827,109.814 76.993,110.259 76.413 C 111.083 75.338,111.570 74.581,111.894 73.867 C 111.995 73.647,112.539 72.905,113.105 72.219 C 113.671 71.533,114.133 70.863,114.133 70.732 C 114.133 70.601,114.433 70.211,114.800 69.867 C 115.167 69.522,115.467 69.111,115.468 68.954 C 115.468 68.796,116.308 67.747,117.334 66.624 C 118.360 65.500,119.200 64.477,119.200 64.351 C 119.200 64.225,120.280 63.047,121.600 61.733 C 122.920 60.419,124.000 59.229,124.000 59.087 C 124.000 58.728,125.370 57.333,125.722 57.333 C 125.881 57.333,127.086 56.253,128.400 54.933 C 129.714 53.613,130.892 52.533,131.018 52.533 C 131.144 52.533,132.167 51.694,133.290 50.668 C 134.414 49.641,135.462 48.801,135.620 48.801 C 135.778 48.800,136.189 48.500,136.533 48.133 C 136.878 47.767,137.267 47.467,137.399 47.467 C 137.530 47.467,138.199 47.004,138.885 46.438 C 139.572 45.873,140.313 45.328,140.533 45.228 C 141.247 44.903,142.005 44.416,143.080 43.592 C 143.659 43.147,144.493 42.610,144.933 42.397 C 145.373 42.185,146.093 41.752,146.533 41.436 C 146.973 41.120,147.633 40.774,148.000 40.667 C 148.367 40.560,148.907 40.266,149.200 40.014 C 149.896 39.416,155.688 36.533,156.194 36.533 C 156.409 36.533,156.910 36.301,157.308 36.018 C 157.707 35.734,158.385 35.414,158.816 35.307 C 159.247 35.200,159.994 34.892,160.475 34.623 C 160.956 34.354,161.478 34.133,161.634 34.133 C 161.791 34.133,162.358 33.941,162.893 33.706 C 164.694 32.916,164.930 32.832,165.858 32.648 C 166.366 32.548,166.996 32.361,167.258 32.233 C 167.519 32.105,167.948 31.895,168.210 31.766 C 168.473 31.638,169.223 31.451,169.877 31.351 C 170.974 31.184,171.729 30.938,172.824 30.393 C 173.057 30.277,173.928 30.097,174.761 29.993 C 175.593 29.889,176.339 29.698,176.419 29.569 C 176.499 29.439,177.014 29.333,177.562 29.333 C 178.111 29.333,178.675 29.219,178.815 29.078 C 178.955 28.938,180.063 28.741,181.277 28.639 C 182.490 28.538,183.547 28.353,183.624 28.228 C 183.702 28.102,184.394 28.000,185.162 28.000 C 185.931 28.000,186.674 27.886,186.813 27.747 C 187.407 27.154,213.074 27.088,213.271 27.679 M217.467 118.400 C 193.414 142.453,173.558 162.133,173.342 162.133 C 172.976 162.133,170.720 159.964,156.782 146.212 C 153.766 143.235,151.185 140.800,151.046 140.800 C 150.908 140.800,148.396 138.396,145.464 135.457 C 142.532 132.519,139.777 129.935,139.342 129.716 L 138.551 129.317 129.209 138.658 L 119.868 148.000 146.533 174.667 C 161.199 189.333,173.267 201.333,173.350 201.333 C 173.432 201.333,197.465 177.369,226.755 148.079 L 280.010 94.825 279.618 94.013 C 279.403 93.566,277.901 91.882,276.280 90.271 C 274.659 88.660,273.333 87.237,273.333 87.108 C 273.333 86.842,261.621 74.667,261.365 74.667 C 261.274 74.667,241.520 94.347,217.467 118.400 " stroke="none" fill="#45965e" fill-rule="evenodd"></path></g></svg>