<?xml version="1.0" standalone="no"?>
<!DOCTYPE svg PUBLIC "-//W3C//DTD SVG 20010904//EN"
 "http://www.w3.org/TR/2001/REC-SVG-20010904/DTD/svg10.dtd">
<svg version="1.0" xmlns="http://www.w3.org/2000/svg"
 width="512.000000pt" height="375.000000pt" viewBox="0 0 512.000000 375.000000"
 preserveAspectRatio="xMidYMid meet">
<g transform="translate(0.000000,375.000000) scale(0.100000,-0.100000)"
fill="#ff003d" stroke="none">
<path d="M2371 3739 c-563 -59 -1067 -373 -1378 -859 -60 -94 -156 -299 -192
-411 -206 -650 -43 -1353 427 -1842 729 -757 1935 -757 2664 0 696 724 684
1866 -26 2579 -156 156 -311 265 -516 363 -307 145 -646 204 -979 170z m483
-189 c567 -97 1064 -507 1271 -1049 77 -204 108 -372 108 -596 0 -343 -92
-648 -281 -931 -235 -350 -587 -595 -1002 -697 -266 -65 -534 -63 -808 8 -509
131 -923 490 -1128 975 -143 339 -168 739 -69 1089 132 467 470 866 905 1070
312 145 658 190 1004 131z"/>
<path d="M1755 3085 c-134 -126 -405 -399 -403 -405 2 -4 172 -182 378 -394
206 -213 376 -392 378 -397 2 -5 -22 -35 -53 -66 -269 -272 -701 -716 -703
-722 -2 -5 99 -108 224 -229 l227 -220 266 271 c146 150 315 323 375 385 61
61 115 112 120 112 6 0 180 -171 386 -380 l375 -380 230 224 230 224 -105 108
c-58 59 -112 115 -120 124 -15 16 -135 141 -374 390 -67 69 -130 135 -140 148
l-19 22 104 108 c57 59 227 233 378 386 l274 279 -205 201 c-112 111 -216 211
-229 223 l-25 23 -370 -378 c-203 -207 -372 -378 -376 -380 -3 -2 -179 171
-390 383 l-384 386 -49 -46z"/>
</g>
</svg>
