<svg version="1.1" xmlns="http://www.w3.org/2000/svg" xmlns:xlink="http://www.w3.org/1999/xlink" width="400" height="400" viewBox="0, 0, 400,400"><g><path d="M180.600 1.028 C 164.241 3.415,159.630 4.245,151.800 6.213 C 71.383 26.417,13.540 91.293,2.380 173.800 C 1.695 178.860,0.939 183.810,0.699 184.800 C -0.057 187.921,-0.144 211.132,0.583 215.600 C 0.923 217.690,1.480 221.650,1.820 224.400 C 9.366 285.389,45.080 340.513,96.800 371.001 C 98.230 371.844,100.120 372.989,101.000 373.545 C 118.814 384.804,148.556 394.691,174.589 398.007 C 179.820 398.673,184.843 399.390,185.750 399.599 C 195.566 401.866,229.488 398.665,249.307 393.602 C 361.525 364.933,426.049 247.209,389.729 137.400 C 365.966 65.554,302.911 12.625,229.400 2.818 C 225.880 2.349,220.750 1.573,218.000 1.095 C 210.225 -0.257,189.660 -0.294,180.600 1.028 M220.800 20.569 C 363.064 37.390,430.330 204.757,339.214 315.200 C 259.987 411.232,108.607 399.421,44.606 292.214 C 20.359 251.599,13.268 201.865,25.042 155.000 C 42.631 84.991,102.166 31.509,174.000 21.185 C 185.803 19.489,209.076 19.182,220.800 20.569 M180.699 60.163 C 174.414 62.439,174.242 64.188,175.767 110.200 C 176.117 120.760,176.580 135.430,176.797 142.800 C 177.013 150.170,177.370 161.150,177.590 167.200 C 177.809 173.250,178.173 184.230,178.399 191.600 C 181.062 278.774,180.756 272.378,182.420 275.640 C 184.599 279.910,186.873 280.481,201.082 280.323 C 220.683 280.106,218.939 284.977,220.602 225.800 C 221.321 200.235,221.804 184.662,222.592 161.600 C 222.911 152.250,223.364 138.390,223.597 130.800 C 225.719 61.704,225.735 65.647,223.334 62.795 C 220.780 59.760,221.156 59.811,200.600 59.710 C 185.921 59.638,181.897 59.729,180.699 60.163 M181.154 298.552 C 175.025 300.742,174.683 302.327,174.902 327.486 C 175.142 355.091,173.504 353.400,200.000 353.400 C 226.824 353.400,225.335 355.109,225.107 324.600 C 224.894 296.144,226.656 297.990,199.723 298.018 C 186.779 298.031,182.247 298.161,181.154 298.552 " stroke="none" fill="#d0d000" fill-rule="evenodd"></path></g></svg>